<?xml version="1.0" encoding="UTF-8" standalone="no"?>
<!-- Created with Inkscape (http://www.inkscape.org/) -->

<svg
   width="108.65688"
   height="99.16449"
   viewBox="0 0 28.748854 26.237271"
   version="1.1"
   id="svg1"
   xml:space="preserve"
   inkscape:version="1.3.2 (091e20e, 2023-11-25, custom)"
   sodipodi:docname="logo.svg"
   inkscape:export-filename="logo.png"
   inkscape:export-xdpi="96"
   inkscape:export-ydpi="96"
   xmlns:inkscape="http://www.inkscape.org/namespaces/inkscape"
   xmlns:sodipodi="http://sodipodi.sourceforge.net/DTD/sodipodi-0.dtd"
   xmlns="http://www.w3.org/2000/svg"
   xmlns:svg="http://www.w3.org/2000/svg"><sodipodi:namedview
     id="namedview1"
     pagecolor="#ffffff"
     bordercolor="#000000"
     borderopacity="0.25"
     inkscape:showpageshadow="2"
     inkscape:pageopacity="0.0"
     inkscape:pagecheckerboard="0"
     inkscape:deskcolor="#d1d1d1"
     inkscape:document-units="mm"
     inkscape:zoom="2.8970538"
     inkscape:cx="25.025424"
     inkscape:cy="70.934133"
     inkscape:window-width="1920"
     inkscape:window-height="1009"
     inkscape:window-x="1912"
     inkscape:window-y="-8"
     inkscape:window-maximized="1"
     inkscape:current-layer="layer1"
     showgrid="false" /><defs
     id="defs1"><rect
       x="38.076153"
       y="112.76398"
       width="40.51693"
       height="16.10914"
       id="rect8" /><rect
       x="34.172646"
       y="28.994972"
       width="97.512856"
       height="6.0406189"
       id="rect3" /><rect
       x="46.599064"
       y="37.969608"
       width="144.28452"
       height="67.654938"
       id="rect1" /><rect
       x="34.172646"
       y="28.994972"
       width="97.512856"
       height="6.0406189"
       id="rect4" /><rect
       x="34.172646"
       y="28.994972"
       width="97.512856"
       height="6.0406189"
       id="rect5" /><rect
       x="34.172646"
       y="28.994972"
       width="97.512856"
       height="6.0406189"
       id="rect6" /><rect
       x="34.172646"
       y="28.994972"
       width="113.37792"
       height="28.417088"
       id="rect7" /><rect
       x="34.172646"
       y="28.994972"
       width="97.512856"
       height="6.0406189"
       id="rect13" /><rect
       x="34.172646"
       y="28.994972"
       width="97.512856"
       height="6.0406189"
       id="rect14" /><rect
       x="34.172646"
       y="28.994972"
       width="97.512856"
       height="6.0406189"
       id="rect15" /><rect
       x="34.172646"
       y="28.994972"
       width="97.512856"
       height="6.0406189"
       id="rect16" /><rect
       x="34.172646"
       y="28.994972"
       width="113.37792"
       height="28.417088"
       id="rect17" /><rect
       x="34.172646"
       y="28.994972"
       width="97.512856"
       height="6.0406189"
       id="rect22" /><rect
       x="34.172646"
       y="28.994972"
       width="97.512856"
       height="6.0406189"
       id="rect23" /><rect
       x="34.172646"
       y="28.994972"
       width="97.512856"
       height="6.0406189"
       id="rect24" /><rect
       x="34.172646"
       y="28.994972"
       width="97.512856"
       height="6.0406189"
       id="rect25" /><rect
       x="34.172646"
       y="28.994972"
       width="113.37792"
       height="28.417088"
       id="rect26" /><rect
       x="34.172646"
       y="28.994972"
       width="97.512856"
       height="6.0406189"
       id="rect31" /><rect
       x="34.172646"
       y="28.994972"
       width="97.512856"
       height="6.0406189"
       id="rect32" /><rect
       x="34.172646"
       y="28.994972"
       width="97.512856"
       height="6.0406189"
       id="rect33" /><rect
       x="34.172646"
       y="28.994972"
       width="97.512856"
       height="6.0406189"
       id="rect34" /><rect
       x="34.172646"
       y="28.994972"
       width="113.37792"
       height="28.417088"
       id="rect35" /><rect
       x="34.172646"
       y="28.994972"
       width="113.37792"
       height="28.417088"
       id="rect36" /><rect
       x="34.172646"
       y="28.994972"
       width="34.794029"
       height="12.807255"
       id="rect37" /><rect
       x="34.172646"
       y="28.994972"
       width="126.55815"
       height="65.516998"
       id="rect9" /><rect
       x="34.172646"
       y="28.994972"
       width="126.55815"
       height="65.516998"
       id="rect28" /><rect
       x="34.172646"
       y="28.994972"
       width="126.55815"
       height="65.516998"
       id="rect29" /><clipPath
       clipPathUnits="userSpaceOnUse"
       id="clipPath10"><rect
         style="fill:#000000;stroke:#000000;stroke-width:0.300001;stroke-linecap:round;stroke-linejoin:round"
         id="rect11"
         width="40.039021"
         height="11.375431"
         x="6.8485703"
         y="16.661537" /></clipPath></defs><g
     inkscape:label="Layer 1"
     inkscape:groupmode="layer"
     id="layer1"
     transform="translate(-3.4474567,-3.465027)"><rect
       style="fill:#ffffff;fill-opacity:1;stroke:#000000;stroke-width:0.300001;stroke-linecap:round;stroke-linejoin:round"
       id="rect27"
       width="28.448853"
       height="25.937319"
       x="3.5974572"
       y="3.6150026" /><text
       xml:space="preserve"
       transform="scale(0.26458333)"
       id="text1"
       style="font-size:4.66668px;line-height:normal;font-family:Arial;-inkscape-font-specification:Arial;text-decoration-color:#000000;white-space:pre;shape-inside:url(#rect1);display:inline;fill:#2f2d27;stroke:#999999;stroke-width:4.53543;stroke-linecap:round;stroke-linejoin:round" /><text
       xml:space="preserve"
       style="font-size:1.23473px;line-height:normal;font-family:Arial;-inkscape-font-specification:Arial;text-decoration-color:#000000;fill:#2f2d27;stroke:#999999;stroke-width:1.2;stroke-linecap:round;stroke-linejoin:round"
       x="28.585791"
       y="18.448339"
       id="text2"><tspan
         sodipodi:role="line"
         id="tspan2"
         x="28.585791"
         y="18.448339"
         style="stroke-width:1.2" /></text><g
       id="g28"
       transform="translate(91.426988,25.166054)" /><g
       id="g36397"
       transform="matrix(0.24671588,-5.3478086e-4,5.3478086e-4,0.24671588,-7.1480503,-45.540808)"><path
         style="fill:#575756;fill-opacity:1;stroke:none;stroke-width:0.264583"
         d="m 107.72695,217.15716 c -4.12725,-3.27758 -10.352115,-3.04676 -14.287527,0.5512 -1.706034,1.5597 -3.439584,5.53421 -3.439584,5.53421 l 3e-6,6.87917 c 0,0 1.512359,3.58127 2.932377,5.00512 2.665678,2.67256 7.101411,4.0894 10.825961,3.07208 1.56132,-0.42651 2.91467,-1.3589 4.23336,-2.25637 0.14552,0.53314 0.19817,1.32213 0.61727,1.7198 0.73845,0.70008 3.91425,0.75274 4.48336,-0.16166 0.72099,-1.15835 0.19103,-5.2623 0.19103,-5.2623 v -11.37709 -7.9375 c 0,-1.07997 0.29157,-2.67116 -0.13229,-3.68211 -0.50773,-1.21085 -4.2246,-1.2667 -4.90961,-0.22049 -0.76039,1.16224 -0.36959,5.12168 -0.51435,8.13594 m -7.937527,2.71198 c 1.039547,-0.21657 2.682607,-0.24152 3.704177,0.0588 6.62148,1.94662 6.08385,12.03827 -0.52917,13.52314 -3.475047,0.78026 -7.026282,-1.46748 -7.856545,-4.91683 -0.816504,-3.39151 0.968904,-7.89162 4.681538,-8.6651 z"
         id="path31934"
         sodipodi:nodetypes="csccccccsccscccssscss" /><path
         style="opacity:1;fill:#575756;fill-opacity:1;stroke:none;stroke-width:0.264583"
         d="m 130.59362,224.27941 h -11.90625 c 0.63924,-2.62315 3.34645,-4.71839 6.08542,-4.71839 2.6461,0 5.67055,1.96567 5.82083,4.71839 m -13.49371,11.58293 c 2.86332,2.43893 6.11584,3.10052 9.78958,2.633 1.97009,-0.25082 5.06255,-1.88885 6.29126,-3.84757 0.26497,-0.42239 -2.05518,-2.71576 -2.48786,-2.73401 -0.82021,-0.0346 -1.41248,0.93826 -2.10013,1.33944 -0.96203,0.56113 -2.89296,0.99113 -4.00183,0.98852 -3.89017,-0.009 -6.55629,-3.74113 -6.31693,-5.16674 l 12.84883,-0.0331 c 1.14644,0 4.06784,0.0259 4.37269,-0.35743 0.42755,-0.53767 0.38981,-2.5696 0.38981,-3.34673 0,-4.70236 -3.86927,-9.0728 -8.46667,-9.98802 -3.58828,-0.71433 -7.48506,-0.0399 -10.31875,2.37389 -2.99995,2.6967 -3.99606,5.62232 -4.049,9.04045 0.0706,4.47028 1.05105,6.58391 4.049,9.09827 z"
         id="path31940"
         sodipodi:nodetypes="cccscssscsccscccccc" /><g
         id="g34851"
         transform="translate(-0.12775254,-34.368748)"><path
           style="opacity:1;fill:#93c01f;fill-opacity:1;stroke:none;stroke-width:0.0499999;stroke-linecap:round;stroke-linejoin:round;stroke-dasharray:none;stroke-opacity:1"
           d="m 132.64586,272.173 7.67064,-11.50553 -7.67064,-11.23147 h 5.56589 l 7.71741,11.1847 -7.76418,11.5523 z"
           id="path32350"
           sodipodi:nodetypes="ccccccc" /><path
           style="opacity:1;fill:#6faa27;fill-opacity:1;stroke:none;stroke-width:0.0499999;stroke-linecap:round;stroke-linejoin:round;stroke-dasharray:none;stroke-opacity:1"
           d="m 147.61295,249.436 h 5.79975 l -7.48354,11.1847 -2.97308,-4.27043 z"
           id="path32352"
           sodipodi:nodetypes="ccccc" /><path
           style="opacity:1;fill:#6faa27;fill-opacity:1;stroke:none;stroke-width:0.0499999;stroke-linecap:round;stroke-linejoin:round;stroke-dasharray:none;stroke-opacity:1"
           d="m 145.92916,260.6207 7.48354,11.5523 h -5.76619 l -4.69044,-7.28186 z"
           id="path32354"
           sodipodi:nodetypes="ccccc" /><path
           style="opacity:1;fill:#48962a;fill-opacity:1;stroke:none;stroke-width:0.0499999;stroke-linecap:round;stroke-linejoin:round;stroke-dasharray:none;stroke-opacity:1"
           d="m 145.92916,260.6207 -2.17508,-5.45526 -0.798,1.18483 z"
           id="path33316" /><path
           style="opacity:1;fill:#48962a;fill-opacity:1;stroke:none;stroke-width:0.0499999;stroke-linecap:round;stroke-linejoin:round;stroke-dasharray:none;stroke-opacity:1"
           d="m 145.92916,260.6207 -2.17509,5.45526 -0.798,-1.18482 z"
           id="path34844" /></g><ellipse
         style="opacity:1;fill:none;fill-opacity:1;stroke:#575756;stroke-width:3.79076;stroke-linecap:round;stroke-linejoin:round;stroke-dasharray:none;stroke-opacity:1"
         id="path35175"
         cx="79.352539"
         cy="226.95677"
         rx="9.6236486"
         ry="9.6666536" /><g
         id="g35624"><path
           style="opacity:1;fill:#575756;fill-opacity:1;stroke:none;stroke-width:0.264583;stroke-opacity:1"
           d="m 64.394887,238.02848 c -6.54095,1.80181 -13.875645,-2.25478 -15.022455,-9.13553 -1.262142,-7.57285 4.283573,-14.02292 11.847455,-14.02292 2.14249,0 5.116131,0.96713 6.757908,2.44739 0.510036,0.45986 -1.05465,3.21851 -1.539742,3.32934 -0.744851,0.17018 -2.209615,-0.74014 -3.299936,-1.10609 -2.537302,-0.85164 -4.904862,-0.0985 -6.923274,1.73815 -5.257457,4.78409 -1.276111,13.36008 5.534211,12.61917 1.025845,-0.1116 2.614773,-0.74021 3.795831,-1.65863 1.530931,-1.19049 2.556523,-2.73296 2.643739,-2.87136 0.495092,-0.78562 3.602944,0.92102 3.754442,1.72673 0.06834,0.36346 -2.435614,4.78138 -7.548179,6.93375 z"
           id="path31938"
           sodipodi:nodetypes="csssssscsssc" /><path
           style="opacity:1;fill:#3d3d3c;fill-opacity:1;stroke:none;stroke-width:3.859;stroke-linecap:round;stroke-linejoin:round;stroke-dasharray:none;stroke-opacity:1"
           d="m 70.110101,233.85964 c 0.389768,0.50197 0.779537,0.79713 1.169305,1.05238 0.459772,-1.07973 0.424692,-2.40689 0.608038,-3.62484 -0.506684,0.98001 -1.05439,1.90141 -1.777343,2.57246 z"
           id="path35242"
           sodipodi:nodetypes="cccc" /></g></g><g
       id="g23"
       transform="translate(1.1947126,9.4931221)"><path
         style="fill:#000000;stroke:#000000;stroke-width:0.300001;stroke-linecap:round;stroke-linejoin:round"
         d="M 5.9948324,13.843804 H 16.862935"
         id="path14" /><path
         style="fill:#000000;stroke:#000000;stroke-width:0.300001;stroke-linecap:round;stroke-linejoin:round"
         d="M 5.9948324,9.4828643 H 16.862935"
         id="path15" /><path
         style="fill:#000000;stroke:#000000;stroke-width:0.300001;stroke-linecap:round;stroke-linejoin:round"
         d="M 13.609354,17.097385 V 6.2292833"
         id="path16" /><path
         style="fill:#000000;stroke:#000000;stroke-width:0.300001;stroke-linecap:round;stroke-linejoin:round"
         d="M 9.2484135,17.097385 V 6.2292833"
         id="path17" /><path
         style="fill:#319fe7;fill-opacity:1"
         d="m 5.9571054,15.920606 c 0,-0.495847 2.8158741,-3.231973 3.3261731,-3.231973 0.116382,0 0.490819,0.26231 0.8320825,0.582909 l 0.620478,0.582909 3.034602,-3.025993 c 2.335112,-2.3284862 3.034602,-2.8954349 3.034602,-2.4595959 0,0.6537624 -5.6574,6.3575569 -6.167614,6.2181929 -0.173079,-0.04728 -0.571879,-0.325869 -0.8862235,-0.619094 l -0.571533,-0.533137 -0.560079,0.56008 c -0.308044,0.308043 -1.0331221,0.987444 -1.6112841,1.509778 -0.916785,0.828261 -1.051204,0.881445 -1.051204,0.415924 z"
         id="path18"
         sodipodi:nodetypes="ssscsssscsss" /></g><g
       id="g22"
       transform="translate(-9.3155159,11.015841)"><path
         id="path13"
         style="fill:#d3d3d3;fill-opacity:1"
         d="m 31.336041,13.536193 -0.553973,0.589113 c -0.55815,0.594123 -0.709496,1.238192 -0.37052,1.577167 0.100936,0.100944 1.79629,0.150371 3.767219,0.110071 3.225434,-0.06596 3.592898,-0.121566 3.676268,-0.556039 0.05094,-0.265489 -0.10902,-0.705326 -0.355534,-0.97772 -0.170588,-0.188498 -0.293146,-0.446884 -0.293146,-0.446884 L 36.765306,13.70817 c 0,0 -2.474628,1.220888 -3.798354,0.824347 -0.458501,-0.137351 -0.973751,-0.502943 -1.434954,-0.973439 z"
         sodipodi:nodetypes="ccssssccscc" /><path
         style="fill:#f8312f;fill-opacity:1"
         d="m 32.902489,14.274219 c -1.036553,-0.310515 -2.363075,-1.78775 -2.699509,-3.006213 -0.50087,-1.8139989 0.405983,-3.8543919 2.09612,-4.7162139 3.49083,-1.780017 7.28481,1.89934 5.573778,5.4053849 -0.929738,1.905109 -3.048451,2.892787 -4.970389,2.317042 z m 3.256355,-1.88996 c 1.396884,-1.396885 1.205859,-3.5453299 -0.411944,-4.6330879 -1.054082,-0.708732 -1.62381,-0.750449 -2.776787,-0.203325 -2.244459,1.065065 -2.262217,4.4762339 -0.02836,5.4476909 0.879007,0.382261 2.53896,0.06685 3.217093,-0.611278 z"
         id="path19"
         sodipodi:nodetypes="sssssssssss" /><path
         style="fill:#f9c23c;fill-opacity:1"
         d="m 29.36987,6.6055011 c 0,-1.484057 1.944476,-2.700173 2.857505,-1.787144 0.174625,0.174625 0.315362,0.442517 0.312747,0.595314 -0.0052,0.302697 -2.467945,1.997608 -2.902595,1.997608 -0.147212,0 -0.267657,-0.3626 -0.267657,-0.805778 z m 7.606785,-0.15365 c -0.691225,-0.518848 -1.256773,-1.046825 -1.256773,-1.173284 0,-0.312995 0.910648,-0.77771 1.523988,-0.77771 0.899072,0 2.066548,1.68003 1.746698,2.513546 -0.226855,0.591176 -0.625069,0.479942 -2.013913,-0.562552 z"
         id="path20"
         sodipodi:nodetypes="sscsssssss" /><path
         style="fill:#f8312f;fill-opacity:1"
         d="m 34.32003,11.174558 c -0.262617,-0.162175 -0.575159,-0.259378 -0.536043,-0.44872 0.13016,-0.630034 0.05477,-0.502552 0.635887,-0.402563 0.166706,0.02868 0.385694,0.198487 0.521411,0.27112 0.490739,0.262636 0.731326,1.057935 0.315575,1.043184 -0.109141,-0.0039 -0.530715,-0.212231 -0.93683,-0.463021 z"
         id="path21"
         sodipodi:nodetypes="ssssss" /><path
         style="fill:#000000"
         d="m 33.983685,10.994455 c -0.575098,-0.20259 -0.380817,-0.640952 -0.325115,-1.5987979 0.09377,-1.612519 0.575019,-1.752285 0.687401,-0.199636 0.03461,0.478159 0.07767,0.702639 0.25243,1.0592379 0.289001,0.589702 -0.496603,0.780804 -0.614716,0.739196 z"
         id="path22"
         sodipodi:nodetypes="sssss" /></g></g></svg>
